<?xml version="1.0" standalone="no"?>
<!DOCTYPE svg PUBLIC "-//W3C//DTD SVG 20010904//EN"
 "http://www.w3.org/TR/2001/REC-SVG-20010904/DTD/svg10.dtd">
<svg version="1.0" xmlns="http://www.w3.org/2000/svg"
 width="200.000000pt" height="200.000000pt" viewBox="0 0 200.000000 200.000000"
 preserveAspectRatio="xMidYMid meet">
<metadata>
Created by potrace 1.11, written by Peter Selinger 2001-2013
</metadata>
<g transform="translate(0.000000,200.000000) scale(0.100000,-0.100000)"
fill="#000000" stroke="none">
<path d="M1595 1841 c-238 -130 -371 -223 -548 -384 -102 -93 -112 -99 -144
-95 -40 4 -44 39 -15 128 38 115 61 220 62 272 0 38 -5 50 -25 67 -34 26 -73
13 -116 -38 -38 -46 -202 -377 -267 -541 -125 -312 -309 -879 -290 -891 22
-14 132 -4 171 15 21 10 53 36 72 58 32 38 85 137 85 159 0 6 17 48 38 93 63
131 184 276 233 276 50 0 84 -46 109 -146 12 -47 16 -51 60 -67 26 -9 63 -28
83 -41 33 -23 37 -23 42 -7 10 34 53 63 98 68 l44 5 -14 77 c-18 101 -18 251
2 326 47 178 158 328 372 498 78 62 93 81 93 121 0 60 -77 84 -145 47z"/>
<path d="M1787 1715 c-8 -17 -44 -53 -79 -80 -191 -150 -301 -282 -347 -417
-26 -77 -27 -121 -2 -58 51 123 165 263 311 379 99 79 119 101 131 143 14 52
6 71 -14 33z"/>
<path d="M781 813 c-70 -89 -109 -160 -140 -252 -42 -122 -109 -209 -194 -250
-50 -24 -129 -31 -224 -18 -51 7 -53 6 -53 -17 0 -41 24 -51 134 -51 112 0
159 16 224 78 34 33 94 132 107 177 25 90 102 223 173 302 39 44 55 47 70 16
10 -22 11 -21 8 7 -5 40 -23 85 -35 85 -6 0 -37 -35 -70 -77z"/>
<path d="M915 702 c-80 -17 -58 -71 68 -175 26 -21 47 -47 47 -57 0 -24 -44
-57 -143 -105 -78 -38 -123 -78 -152 -135 -14 -28 -14 -31 0 -36 24 -10 326
129 376 172 8 8 19 14 24 14 4 0 32 18 61 40 50 37 52 42 43 68 -13 37 -43 70
-109 119 -86 64 -176 103 -215 95z"/>
<path d="M1238 698 c-32 -11 -39 -34 -22 -69 13 -25 31 -43 103 -98 74 -56 62
-83 -63 -147 -94 -49 -158 -100 -182 -145 -18 -36 -18 -49 2 -49 16 0 198 75
219 90 6 4 46 27 90 50 126 68 195 118 195 142 0 44 -90 130 -202 191 -63 35
-107 46 -140 35z"/>
<path d="M805 578 c13 -66 71 -134 106 -123 27 9 24 31 -8 50 -16 10 -41 34
-58 56 -34 44 -46 49 -40 17z"/>
<path d="M1610 390 c-57 -50 -259 -162 -414 -229 -110 -48 -155 -50 -185 -9
-16 23 -18 27 -20 52 -1 12 -16 8 -68 -16 -112 -50 -127 -56 -156 -63 -33 -9
-70 0 -91 21 -15 14 -16 13 -16 -10 0 -14 11 -37 24 -52 38 -45 85 -35 256 50
33 17 48 20 56 12 6 -6 9 -17 7 -23 -8 -22 17 -53 50 -61 40 -11 75 1 232 78
137 67 299 162 332 195 19 19 44 85 32 85 -2 0 -20 -14 -39 -30z"/>
</g>
</svg>
